<svg xmlns="http://www.w3.org/2000/svg" xmlns:xlink="http://www.w3.org/1999/xlink" width="25" height="25" viewBox="0 0 25 25">
  <defs>
    <clipPath id="clip-path">
      <rect id="econometrics_1" data-name="econometrics 1" width="25" height="25" fill="none" style="mix-blend-mode: normal;isolation: isolate"/>
    </clipPath>
  </defs>
  <g id="econometrics_1-2" data-name="econometrics 1" clip-path="url(#clip-path)" style="mix-blend-mode: normal;isolation: isolate">
    <rect id="econometrics_1-3" data-name="econometrics 1" width="25" height="25" fill="none" style="mix-blend-mode: normal;isolation: isolate"/>
    <g id="Group" transform="translate(0.441 0)" style="mix-blend-mode: normal;isolation: isolate">
      <path id="Vector" d="M5.01,17.237H8.265V14.081l-1.543-.957a.732.732,0,0,1,.772-1.245l1.5.932L10.309,12A8.492,8.492,0,0,1,11.775.465a8.961,8.961,0,0,0-7.4,16.2A2.263,2.263,0,0,1,5.01,17.237Z" fill="#b1b1b1" style="mix-blend-mode: normal;isolation: isolate"/>
      <path id="Vector-2" data-name="Vector" d="M6.933,0V1.66H0V0Z" transform="translate(5.468 18.702)" fill="#b1b1b1" style="mix-blend-mode: normal;isolation: isolate"/>
      <path id="Vector-3" data-name="Vector" d="M0,4.121H3.119a2.119,2.119,0,0,1,.613-.547A8.951,8.951,0,0,0,5.55,2.157,8.439,8.439,0,0,1,1.554,0C1.512.027,1.212.213,0,.964Z" transform="translate(9.73 13.116)" fill="#b1b1b1" style="mix-blend-mode: normal;isolation: isolate"/>
      <path id="Vector-4" data-name="Vector" d="M0,7.031A6.982,6.982,0,1,0,6.982,0,6.99,6.99,0,0,0,0,7.031Zm7.715,3.327a.732.732,0,0,1-1.465,0v-.07a2.654,2.654,0,0,1-1.035-.44.732.732,0,0,1,.8-1.226,1.3,1.3,0,0,0,.961.248.7.7,0,0,0,.7-.591.489.489,0,0,0-.367-.584,6.062,6.062,0,0,1-1.673-.808,1.835,1.835,0,0,1,.617-3.07V3.711a.732.732,0,1,1,1.465,0v.041a1.934,1.934,0,0,1,.851.489A.732.732,0,0,1,7.522,5.268a.739.739,0,0,0-.755-.081.406.406,0,0,0-.259.322.286.286,0,0,0,.028.226,5.035,5.035,0,0,0,1.257.58A2.057,2.057,0,0,1,7.715,10.2Z" transform="translate(10.155 0.002)" fill="#b1b1b1" style="mix-blend-mode: normal;isolation: isolate"/>
      <path id="Vector-5" data-name="Vector" d="M2.295,3.174A2.3,2.3,0,0,0,4.589.879V0H0V.879A2.3,2.3,0,0,0,2.295,3.174Z" transform="translate(6.64 21.826)" fill="#b1b1b1" style="mix-blend-mode: normal;isolation: isolate"/>
    </g>
  </g>
</svg>
