<svg xmlns="http://www.w3.org/2000/svg" width="36.27" height="36.275" viewBox="0 0 36.27 36.275">
  <g id="Group_25" data-name="Group 25" transform="translate(-1120.14 -759.591)">
    <path id="Path_92" data-name="Path 92" d="M1156.41,778.131a15.114,15.114,0,0,0-.39-3.708h-17.38v6.731h10.2a8.8,8.8,0,0,1-3.78,5.885l-.04.225,5.5,4.171.38.038A17.543,17.543,0,0,0,1156.41,778.131Z" fill="#4285f4"/>
    <path id="Path_93" data-name="Path 93" d="M1138.64,795.866a17.866,17.866,0,0,0,12.26-4.393l-5.84-4.434a11.45,11.45,0,0,1-16.95-5.723l-.21.018-5.72,4.333-.07.2A18.525,18.525,0,0,0,1138.64,795.866Z" fill="#34a853"/>
    <path id="Path_94" data-name="Path 94" d="M1128.11,781.316a10.981,10.981,0,0,1-.61-3.587,11.526,11.526,0,0,1,.59-3.588l-.01-.24-5.78-4.4-.19.088a17.809,17.809,0,0,0,0,16.283Z" fill="#fbbc05"/>
    <path id="Path_95" data-name="Path 95" d="M1138.64,766.6a10.373,10.373,0,0,1,7.16,2.7l5.22-5a17.982,17.982,0,0,0-12.38-4.716,18.525,18.525,0,0,0-16.53,10l5.98,4.554A11.171,11.171,0,0,1,1138.64,766.6Z" fill="#eb4335"/>
  </g>
</svg>
