<svg xmlns="http://www.w3.org/2000/svg" xmlns:xlink="http://www.w3.org/1999/xlink" width="55" height="55" viewBox="0 0 55 55">
  <defs>
    <clipPath id="clip-path">
      <rect id="iconfinder_paypal_payment_pay_5340264_1" data-name="iconfinder_paypal_payment_pay_5340264 1" width="28" height="28" fill="none" style="mix-blend-mode: normal;isolation: isolate"/>
    </clipPath>
  </defs>
  <g id="Group_314" data-name="Group 314" style="mix-blend-mode: normal;isolation: isolate">
    <path id="Ellipse_10" data-name="Ellipse 10" d="M0,27.5A27.5,27.5,0,1,1,27.5,55,27.5,27.5,0,0,1,0,27.5Z" fill="#e7edff" style="mix-blend-mode: normal;isolation: isolate"/>
    <g id="iconfinder_paypal_payment_pay_5340264_1-2" data-name="iconfinder_paypal_payment_pay_5340264 1" transform="translate(14 14)" clip-path="url(#clip-path)" style="mix-blend-mode: normal;isolation: isolate">
      <rect id="iconfinder_paypal_payment_pay_5340264_1-3" data-name="iconfinder_paypal_payment_pay_5340264 1" width="28" height="28" fill="none" style="mix-blend-mode: normal;isolation: isolate"/>
      <g id="paypal_payment_pay" data-name="paypal payment pay" transform="translate(4.873 2.625)" style="mix-blend-mode: normal;isolation: isolate">
        <path id="Vector" d="M16.405,1.686A5.81,5.81,0,0,0,12.321,0H3.877A.875.875,0,0,0,3,.735L.01,19.5a.886.886,0,0,0,.866,1.015H4.49L4.3,21.735a.875.875,0,0,0,.875,1.015H9.241a.875.875,0,0,0,.875-.726l.875-5.346h2.756a6.528,6.528,0,0,0,6.5-6.519V9.914a5.136,5.136,0,0,0-2.126-4.156A5.81,5.81,0,0,0,16.405,1.686Zm-4.084.064a4.06,4.06,0,0,1,3.946,3.159,4.97,4.97,0,0,0-1.155-.131h-7.3a.875.875,0,0,0-.875.735L6.423,8.75a.886.886,0,1,0,1.75.28l.4-2.52H15.13a3.386,3.386,0,0,1,1.225.236,5.661,5.661,0,0,1-5.6,4.979H6.695a.875.875,0,0,0-.875.726L4.752,18.769H1.9L4.621,1.75Zm4.784,11.772a4.778,4.778,0,0,1-3.358,1.405h-3.5a.875.875,0,0,0-.875.726L8.5,21H6.187l.193-1.216,1.05-6.291h3.307a7.4,7.4,0,0,0,7.14-5.53A3.342,3.342,0,0,1,18.5,9.914v.245A4.778,4.778,0,0,1,17.105,13.522Z" fill="#396aff" style="mix-blend-mode: normal;isolation: isolate"/>
      </g>
    </g>
  </g>
</svg>
