<svg xmlns="http://www.w3.org/2000/svg" xmlns:xlink="http://www.w3.org/1999/xlink" width="50" height="50" viewBox="0 0 50 50">
  <defs>
    <clipPath id="clip-path">
      <rect id="settings_1" data-name="settings 1" width="25" height="25" fill="none" style="mix-blend-mode: normal;isolation: isolate"/>
    </clipPath>
  </defs>
  <g id="Group_4" data-name="Group 4" style="mix-blend-mode: normal;isolation: isolate">
    <path id="Ellipse_3" data-name="Ellipse 3" d="M0,25A25,25,0,1,1,25,50,25,25,0,0,1,0,25Z" fill="#f5f7fa" style="mix-blend-mode: normal;isolation: isolate"/>
    <g id="settings_1-2" data-name="settings 1" transform="translate(12 12)" clip-path="url(#clip-path)" style="mix-blend-mode: normal;isolation: isolate">
      <rect id="settings_1-3" data-name="settings 1" width="25" height="25" fill="none" style="mix-blend-mode: normal;isolation: isolate"/>
      <path id="Vector" d="M11.715,25a2.3,2.3,0,0,1-2.3-2.3v-.531a10.1,10.1,0,0,1-1.567-.651l-.376.376a2.3,2.3,0,0,1-3.255,0L3.107,20.784a2.3,2.3,0,0,1,0-3.255l.376-.376a10.1,10.1,0,0,1-.651-1.567H2.3a2.3,2.3,0,0,1-2.3-2.3V11.715a2.3,2.3,0,0,1,2.3-2.3h.531a10.1,10.1,0,0,1,.651-1.567l-.376-.376a2.3,2.3,0,0,1,0-3.255L4.216,3.107a2.3,2.3,0,0,1,3.255,0l.376.376a10.1,10.1,0,0,1,1.567-.651V2.3a2.3,2.3,0,0,1,2.3-2.3h1.569a2.3,2.3,0,0,1,2.3,2.3v.531a10.1,10.1,0,0,1,1.567.651l.376-.376a2.3,2.3,0,0,1,3.255,0l1.109,1.109a2.3,2.3,0,0,1,0,3.255l-.376.376a10.092,10.092,0,0,1,.651,1.567H22.7a2.3,2.3,0,0,1,2.3,2.3v1.569a2.3,2.3,0,0,1-2.3,2.3h-.531a10.1,10.1,0,0,1-.651,1.567l.376.376a2.3,2.3,0,0,1,0,3.255l-1.109,1.109a2.3,2.3,0,0,1-3.255,0l-.376-.376a10.1,10.1,0,0,1-1.567.651V22.7a2.3,2.3,0,0,1-2.3,2.3ZM10.33,20.908a.732.732,0,0,1,.549.709V22.7a.838.838,0,0,0,.837.837h1.569a.838.838,0,0,0,.837-.837V21.617a.732.732,0,0,1,.549-.709,8.636,8.636,0,0,0,2.238-.929.732.732,0,0,1,.891.113l.766.766a.836.836,0,0,0,1.183,0l1.11-1.11a.837.837,0,0,0,0-1.183l-.766-.766a.732.732,0,0,1-.113-.891,8.633,8.633,0,0,0,.929-2.238.733.733,0,0,1,.709-.549H22.7a.838.838,0,0,0,.837-.837V11.715a.837.837,0,0,0-.837-.837H21.617a.733.733,0,0,1-.709-.549,8.633,8.633,0,0,0-.929-2.238.732.732,0,0,1,.113-.891l.766-.766a.836.836,0,0,0,0-1.183l-1.11-1.11a.836.836,0,0,0-1.183,0l-.766.766a.732.732,0,0,1-.891.113,8.631,8.631,0,0,0-2.238-.929.732.732,0,0,1-.549-.709V2.3a.838.838,0,0,0-.837-.837H11.716a.838.838,0,0,0-.837.837V3.383a.732.732,0,0,1-.549.709,8.634,8.634,0,0,0-2.238.929A.733.733,0,0,1,7.2,4.908l-.766-.766a.836.836,0,0,0-1.183,0l-1.11,1.11a.836.836,0,0,0,0,1.183l.766.766a.732.732,0,0,1,.113.891,8.632,8.632,0,0,0-.929,2.238.732.732,0,0,1-.709.549H2.3a.838.838,0,0,0-.837.837v1.569a.838.838,0,0,0,.837.837H3.383a.732.732,0,0,1,.709.549,8.633,8.633,0,0,0,.929,2.238.732.732,0,0,1-.113.891l-.766.766a.836.836,0,0,0,0,1.183l1.11,1.11a.836.836,0,0,0,1.183,0l.766-.766a.736.736,0,0,1,.891-.112A8.635,8.635,0,0,0,10.33,20.908Z" transform="translate(0 0)" fill="#718ebf" style="mix-blend-mode: normal;isolation: isolate"/>
      <path id="Vector-2" data-name="Vector" d="M0,5.439a5.439,5.439,0,1,1,5.439,5.439A5.446,5.446,0,0,1,0,5.439Zm1.465,0A3.975,3.975,0,1,0,5.439,1.465,3.979,3.979,0,0,0,1.465,5.439Z" transform="translate(7.061 7.061)" fill="#718ebf" style="mix-blend-mode: normal;isolation: isolate"/>
    </g>
  </g>
</svg>
