<svg xmlns="http://www.w3.org/2000/svg" width="26" height="22.599" viewBox="0 0 26 22.599">
  <g id="Group" transform="translate(0 0)" style="mix-blend-mode: normal;isolation: isolate">
    <path id="Vector" d="M24.966.051.49,9.395a.762.762,0,0,0,0,1.422l6.876,2.656v8.364a.762.762,0,0,0,1.442.343l2.844-5.643,6.94,5.15a.762.762,0,0,0,1.183-.389C26.251.053,25.971.977,25.982.923A.762.762,0,0,0,24.966.051ZM8.017,12.092l-5.13-1.981L19.94,3.6ZM19.28,5.941c-8.943,9.435-8.476,8.938-8.515,8.991-.058.078.1-.226-1.878,3.7v-5.29Zm-6.759,9.345L23.566,3.634,18.629,19.82Z" fill="#fff" style="mix-blend-mode: normal;isolation: isolate"/>
  </g>
</svg>
