<svg xmlns="http://www.w3.org/2000/svg" xmlns:xlink="http://www.w3.org/1999/xlink" width="25" height="25" viewBox="0 0 25 25">
  <defs>
    <clipPath id="clip-path">
      <rect id="user_3_1" data-name="user 3 1" width="25" height="25" fill="none" style="mix-blend-mode: normal;isolation: isolate"/>
    </clipPath>
  </defs>
  <g id="user_3_1-2" data-name="user 3 1" clip-path="url(#clip-path)" style="mix-blend-mode: normal;isolation: isolate">
    <rect id="user_3_1-3" data-name="user 3 1" width="25" height="25" fill="none" style="mix-blend-mode: normal;isolation: isolate"/>
    <path id="Vector" d="M10.279,10.278a5.826,5.826,0,0,0,1.764-4.257,5.827,5.827,0,0,0-1.764-4.257A5.828,5.828,0,0,0,6.022,0,5.826,5.826,0,0,0,1.764,1.764,5.826,5.826,0,0,0,0,6.021a5.826,5.826,0,0,0,1.764,4.258,5.828,5.828,0,0,0,4.257,1.764A5.826,5.826,0,0,0,10.279,10.278Z" transform="translate(6.3)" fill="#b1b1b1" style="mix-blend-mode: normal;isolation: isolate"/>
    <path id="Vector-2" data-name="Vector" d="M20.6,5.568a12.451,12.451,0,0,0-.389-1.588A7.848,7.848,0,0,0,19.563,2.5a5.588,5.588,0,0,0-.985-1.283A4.34,4.34,0,0,0,17.164.327,4.887,4.887,0,0,0,15.359,0a1.832,1.832,0,0,0-.979.415c-.293.191-.637.413-1.019.657a5.841,5.841,0,0,1-1.319.581,5.239,5.239,0,0,1-1.613.261,5.243,5.243,0,0,1-1.614-.261A5.828,5.828,0,0,1,7.5,1.073C7.117.83,6.774.609,6.476.415A1.83,1.83,0,0,0,5.5,0,4.882,4.882,0,0,0,3.692.327a4.337,4.337,0,0,0-1.414.889A5.59,5.59,0,0,0,1.294,2.5,7.86,7.86,0,0,0,.641,3.98,12.475,12.475,0,0,0,.253,5.568a14.82,14.82,0,0,0-.2,1.58C.017,7.627,0,8.123,0,8.625a4.151,4.151,0,0,0,1.233,3.141A4.438,4.438,0,0,0,4.41,12.924H16.448a4.437,4.437,0,0,0,3.177-1.159,4.149,4.149,0,0,0,1.233-3.141c0-.5-.017-1-.05-1.477A14.888,14.888,0,0,0,20.6,5.568Z" transform="translate(2.051 12.076)" fill="#b1b1b1" style="mix-blend-mode: normal;isolation: isolate"/>
  </g>
</svg>
